<?xml version="1.0"?>
<svg width="640" height="480" xmlns="http://www.w3.org/2000/svg" xmlns:svg="http://www.w3.org/2000/svg" xmlns:xlink="http://www.w3.org/1999/xlink">
 <!-- Created with SVG-edit - http://svg-edit.googlecode.com/ -->
 <defs>
  <symbol id="svg_27" viewBox="0 0 128 128" xmlns="http://www.w3.org/2000/svg" xmlns:xlink="http://www.w3.org/1999/xlink">
   <path id="svg_1" d="m32.67,45.962c-0.55,0 -1.272,0.358 -1.604,0.797l-1.823,2.407c-0.332,0.438 -1.054,0.796 -1.604,0.796l-5.969,0c-0.55,0 -1,0.45 -1,1l0,5c0,0.55 0.45,1 1,1l6,0c0.55,0 1.27,-0.359 1.6,-0.8l1.8,-2.4c0.33,-0.44 1.05,-0.8 1.6,-0.8l5,0c0.55,0 1,-0.45 1,-1l0,-5c0,-0.55 -0.45,-1 -1,-1l-5,0z" fill="#000000"/>
   <g id="svg_2">
    <g id="svg_3">
     <path id="svg_5" d="m52.67,25c0,-0.55 -0.45,-1 -1,-1l-5,0c-0.55,0 -1,0.45 -1,1l0,13c0,0.55 0.45,1 1,1l5,0c0.55,0 1,-0.45 1,-1l0,-13z" fill="#000000"/>
    </g>
    <g id="svg_6">
     <path id="svg_7" d="m66.669,25c0,-0.55 -0.45,-1 -1,-1l-5,0c-0.55,0 -1,0.45 -1,1l0,13c0,0.55 0.45,1 1,1l5,0c0.55,0 1,-0.45 1,-1l0,-13z" fill="#000000"/>
    </g>
    <g id="svg_8">
     <path id="svg_9" d="m80.669,25c0,-0.55 -0.449,-1 -1,-1l-5,0c-0.549,0 -1,0.45 -1,1l0,13c0,0.55 0.451,1 1,1l5,0c0.551,0 1,-0.45 1,-1l0,-13z" fill="#000000"/>
    </g>
   </g>
   <path id="svg_10" d="m32.67,59.837c-0.55,0 -1.272,0.358 -1.604,0.797l-1.823,2.406c-0.332,0.438 -1.054,0.797 -1.604,0.797l-5.969,0c-0.55,0 -1,0.449 -1,1l0,5c0,0.549 0.45,1 1,1l6,0c0.55,0 1.27,-0.359 1.6,-0.801l1.8,-2.4c0.33,-0.439 1.05,-0.799 1.6,-0.799l5,0c0.55,0 1,-0.451 1,-1l0,-5c0,-0.55 -0.45,-1 -1,-1l-5,0z" fill="#000000"/>
   <path id="svg_11" d="m32.67,73.9c-0.55,0 -1.272,0.357 -1.604,0.797l-1.823,2.406c-0.332,0.438 -1.054,0.797 -1.604,0.797l-5.969,0c-0.55,0 -1,0.449 -1,1l0,5c0,0.549 0.45,1 1,1l6,0c0.55,0 1.27,-0.359 1.6,-0.801l1.8,-2.4c0.33,-0.439 1.05,-0.799 1.6,-0.799l5,0c0.55,0 1,-0.451 1,-1l0,-5c0,-0.551 -0.45,-1 -1,-1l-5,0z" fill="#000000"/>
   <g id="svg_12">
    <g id="svg_13">
     <g id="svg_14">
      <path id="svg_15" d="m52.67,89c0,-0.549 -0.45,-1 -1,-1l-5,0c-0.55,0 -1,0.451 -1,1l0,14c0,0.551 0.45,1 1,1l5,0c0.55,0 1,-0.449 1,-1l0,-14z" fill="#000000"/>
     </g>
     <g id="svg_16">
      <path id="svg_17" d="m66.669,89c0,-0.549 -0.45,-1 -1,-1l-5,0c-0.55,0 -1,0.451 -1,1l0,14c0,0.551 0.45,1 1,1l5,0c0.55,0 1,-0.449 1,-1l0,-14z" fill="#000000"/>
     </g>
     <g id="svg_18">
      <path id="svg_19" d="m80.669,89c0,-0.549 -0.449,-1 -1,-1l-5,0c-0.549,0 -1,0.451 -1,1l0,14c0,0.551 0.451,1 1,1l5,0c0.551,0 1,-0.449 1,-1l0,-14z" fill="#000000"/>
     </g>
    </g>
    <path id="svg_20" d="m94.669,45.962c0.551,0 1.272,0.358 1.604,0.797l1.823,2.407c0.332,0.438 1.055,0.796 1.604,0.796l5.969,0c0.551,0 1,0.45 1,1l0,5c0,0.55 -0.449,1 -1,1l-6,0c-0.549,0 -1.27,-0.36 -1.6,-0.8l-1.8,-2.4c-0.33,-0.439 -1.05,-0.8 -1.601,-0.8l-5,0c-0.549,0 -1,-0.45 -1,-1l0,-5c0,-0.55 0.451,-1 1,-1l5.001,0z" fill="#000000"/>
    <path id="svg_21" d="m94.669,59.837c0.551,0 1.272,0.358 1.604,0.797l1.823,2.406c0.332,0.438 1.055,0.797 1.604,0.797l5.969,0c0.551,0 1,0.449 1,1l0,5c0,0.549 -0.449,1 -1,1l-6,0c-0.549,0 -1.27,-0.361 -1.6,-0.801l-1.8,-2.4c-0.33,-0.439 -1.05,-0.799 -1.601,-0.799l-5,0c-0.549,0 -1,-0.451 -1,-1l0,-5c0,-0.55 0.451,-1 1,-1l5.001,0z" fill="#000000"/>
    <path id="svg_22" d="m94.669,73.9c0.551,0 1.272,0.357 1.604,0.797l1.823,2.406c0.332,0.438 1.055,0.797 1.604,0.797l5.969,0c0.551,0 1,0.449 1,1l0,5c0,0.549 -0.449,1 -1,1l-6,0c-0.549,0 -1.27,-0.361 -1.6,-0.801l-1.8,-2.4c-0.33,-0.439 -1.05,-0.799 -1.601,-0.799l-5,0c-0.549,0 -1,-0.451 -1,-1l0,-5c0,-0.551 0.451,-1 1,-1l5.001,0z" fill="#000000"/>
   </g>
   <path id="svg_23" d="m90.669,41l0,46c0,2.201 -1.799,4 -4,4l-46,0c-2.2,0 -4,-1.799 -4,-4l0,-46c0,-2.2 1.8,-4 4,-4l46,0c2.202,0 4,1.8 4,4z" fill="#000000"/>
   <path id="svg_24" d="m82.892,48.444c0,0.55 -0.451,1 -1,1l-15.127,0c-0.549,0 -1,-0.45 -1,-1l0,-3.137c0,-0.55 0.45,-1 1,-1l15.127,0c0.549,0 1,0.45 1,1l0,3.137z" fill="#000000"/>
  </symbol>
 </defs>
 <g>
  <title>Layer 1</title>
  <g id="svg_4"/>
  <use id="svg_28" xlink:href="#svg_27" transform="matrix(1.25,0,0,1.25,0,0) " y="-37.6" x="-56"/>
  <g id="svg_29"/>
 </g>
</svg>